<?xml version="1.0" encoding="UTF-8" standalone="no"?>
<!-- Created with Inkscape (http://www.inkscape.org/) -->

<svg
   xmlns:dc="http://purl.org/dc/elements/1.1/"
   xmlns:cc="http://creativecommons.org/ns#"
   xmlns:rdf="http://www.w3.org/1999/02/22-rdf-syntax-ns#"
   xmlns:svg="http://www.w3.org/2000/svg"
   xmlns="http://www.w3.org/2000/svg"
   xmlns:sodipodi="http://sodipodi.sourceforge.net/DTD/sodipodi-0.dtd"
   xmlns:inkscape="http://www.inkscape.org/namespaces/inkscape"
   width="184.38452mm"
   height="125.15434mm"
   viewBox="0 0 653.33098 443.46027"
   id="svg2"
   version="1.1"
   inkscape:version="0.91 r13725"
   sodipodi:docname="logo.svg">
  <defs
     id="defs4" />
  <sodipodi:namedview
     id="base"
     pagecolor="#ffffff"
     bordercolor="#666666"
     borderopacity="1.0"
     inkscape:pageopacity="0.0"
     inkscape:pageshadow="2"
     inkscape:zoom="2.5"
     inkscape:cx="335.66887"
     inkscape:cy="120.2653"
     inkscape:document-units="px"
     inkscape:current-layer="layer1"
     showgrid="false"
     inkscape:window-width="1858"
     inkscape:window-height="1057"
     inkscape:window-x="1912"
     inkscape:window-y="-8"
     inkscape:window-maximized="1"
     fit-margin-top="0"
     fit-margin-left="0"
     fit-margin-right="0"
     fit-margin-bottom="0" />
  <metadata
     id="metadata7">
    <rdf:RDF>
      <cc:Work
         rdf:about="">
        <dc:format>image/svg+xml</dc:format>
        <dc:type
           rdf:resource="http://purl.org/dc/dcmitype/StillImage" />
        <dc:title></dc:title>
      </cc:Work>
    </rdf:RDF>
  </metadata>
  <g
     inkscape:groupmode="layer"
     id="layer3"
     inkscape:label="figure"
     style="display:inline"
     transform="translate(-50.16668,-189.3622)" />
  <g
     inkscape:label="book"
     inkscape:groupmode="layer"
     id="layer1"
     style="display:inline"
     transform="translate(-50.16668,-189.3622)">
    <g
       id="g4847">
      <ellipse
         ry="44.02449"
         rx="28.449051"
         cy="320.77475"
         cx="376.3335"
         id="path4194"
         style="fill:#4ea9df;fill-opacity:1;stroke:none" />
      <path
         sodipodi:nodetypes="ccssc"
         inkscape:connector-curvature="0"
         id="path4219"
         d="m 378.40009,560.33623 0,-222.91424 c 0,0 -21.41668,4.92215 -25.92503,13.11261 l -15.87887,28.84771 c -5.51487,10.01903 41.8039,180.95392 41.8039,180.95392 z"
         style="fill:#4ea9df;fill-opacity:1;fill-rule:evenodd;stroke:none;stroke-width:1px;stroke-linecap:butt;stroke-linejoin:miter;stroke-opacity:1" />
      <path
         style="fill:#4ea9df;fill-opacity:1;fill-rule:evenodd;stroke:none;stroke-width:1px;stroke-linecap:butt;stroke-linejoin:miter;stroke-opacity:1"
         d="m 375.25957,560.37147 0,-222.91425 c 0,0 21.41665,4.92216 25.92499,13.11261 l 15.87887,28.84772 c 5.51487,10.01902 -41.80386,180.95392 -41.80386,180.95392 z"
         id="path4223"
         inkscape:connector-curvature="0"
         sodipodi:nodetypes="ccssc" />
    </g>
    <g
       id="g4503"
       transform="matrix(3.2213041,0,0,3.2213041,-836.22885,-839.40056)">
      <g
         id="g4505"
         transform="translate(-14.333334,-15.333333)">
        <ellipse
           ry="8.666667"
           rx="6.6666665"
           cy="415.36218"
           cx="364.33331"
           id="ellipse4507"
           style="fill:#4ea9df;fill-opacity:1;stroke:none" />
        <path
           inkscape:connector-curvature="0"
           id="path4509"
           d="m 378,438.3622 c 0,0 -1.66666,-21 -15.33333,-18.33333 C 349,422.69554 378,438.3622 378,438.3622 Z"
           style="fill:#4ea9df;fill-opacity:1;fill-rule:evenodd;stroke:none;stroke-width:1px;stroke-linecap:butt;stroke-linejoin:miter;stroke-opacity:1" />
      </g>
      <g
         id="g4511"
         transform="matrix(0.65498609,0,0,1,194.82171,-0.99999997)">
        <path
           sodipodi:nodetypes="cscsc"
           inkscape:connector-curvature="0"
           id="path4513"
           d="m 270.66667,427.69649 c 0.0915,0.13411 -42.74433,-0.66354 -76,-24.73699 -27.85682,-20.16527 -72,-26.26395 -72,-26.26395 0,0 44.60339,0.42851 71.33333,18.32369 33.8283,22.64739 76.80639,33.03567 76.66667,32.67725 z"
           style="fill:#aca793;fill-opacity:1;fill-rule:evenodd;stroke:none;stroke-width:1px;stroke-linecap:butt;stroke-linejoin:miter;stroke-opacity:1" />
        <path
           sodipodi:nodetypes="cccc"
           inkscape:connector-curvature="0"
           id="path4515"
           d="m 306,457.3622 c -34.08995,-22.51254 -90.51093,-13.36247 -94,-89 -1.23881,-5.3447 -19.08625,14.08897 -77,-48 46.7746,104.85809 118.23673,73.40298 171,137 z"
           style="fill:#decd87;fill-opacity:1;fill-rule:evenodd;stroke:none;stroke-width:1px;stroke-linecap:butt;stroke-linejoin:miter;stroke-opacity:1" />
        <path
           sodipodi:nodetypes="ccc"
           inkscape:connector-curvature="0"
           id="path4517"
           d="m 305.86512,457.20123 c 4.24697,3.17205 -88.9319,0.10624 -161.30846,-62.8357 69.04689,44.40526 124.64021,59.01856 161.30846,62.8357 z"
           style="fill:#93b6e3;fill-opacity:1;fill-rule:evenodd;stroke:none;stroke-width:1px;stroke-linecap:butt;stroke-linejoin:miter;stroke-opacity:1" />
      </g>
    </g>
    <g
       transform="matrix(-3.2213041,0,0,3.2213041,1590.3899,-839.40056)"
       id="g4786">
      <g
         transform="translate(-14.333334,-15.333333)"
         id="g4788">
        <ellipse
           style="fill:#4ea9df;fill-opacity:1;stroke:none"
           id="ellipse4790"
           cx="364.33331"
           cy="415.36218"
           rx="6.6666665"
           ry="8.666667" />
        <path
           style="fill:#4ea9df;fill-opacity:1;fill-rule:evenodd;stroke:none;stroke-width:1px;stroke-linecap:butt;stroke-linejoin:miter;stroke-opacity:1"
           d="m 378,438.3622 c 0,0 -1.66666,-21 -15.33333,-18.33333 C 349,422.69554 378,438.3622 378,438.3622 Z"
           id="path4792"
           inkscape:connector-curvature="0" />
      </g>
      <g
         transform="matrix(0.65498609,0,0,1,194.82171,-0.99999997)"
         id="g4794">
        <path
           style="fill:#aca793;fill-opacity:1;fill-rule:evenodd;stroke:none;stroke-width:1px;stroke-linecap:butt;stroke-linejoin:miter;stroke-opacity:1"
           d="m 270.66667,427.69649 c 0.0915,0.13411 -42.74433,-0.66354 -76,-24.73699 -27.85682,-20.16527 -72,-26.26395 -72,-26.26395 0,0 44.60339,0.42851 71.33333,18.32369 33.8283,22.64739 76.80639,33.03567 76.66667,32.67725 z"
           id="path4796"
           inkscape:connector-curvature="0"
           sodipodi:nodetypes="cscsc" />
        <path
           style="fill:#decd87;fill-opacity:1;fill-rule:evenodd;stroke:none;stroke-width:1px;stroke-linecap:butt;stroke-linejoin:miter;stroke-opacity:1"
           d="m 306,457.3622 c -34.08995,-22.51254 -90.51093,-13.36247 -94,-89 -1.23881,-5.3447 -19.08625,14.08897 -77,-48 46.7746,104.85809 118.23673,73.40298 171,137 z"
           id="path4798"
           inkscape:connector-curvature="0"
           sodipodi:nodetypes="cccc" />
        <path
           style="fill:#93b6e3;fill-opacity:1;fill-rule:evenodd;stroke:none;stroke-width:1px;stroke-linecap:butt;stroke-linejoin:miter;stroke-opacity:1"
           d="m 305.86512,457.20123 c 4.24697,3.17205 -88.9319,0.10624 -161.30846,-62.8357 69.04689,44.40526 124.64021,59.01856 161.30846,62.8357 z"
           id="path4800"
           inkscape:connector-curvature="0"
           sodipodi:nodetypes="ccc" />
      </g>
    </g>
  </g>
</svg>
